Coordinates
nRows=8
nColumns=38

# SIMM Motion File Header:
name Coordinates
datacolumns 38
datarows 8
otherdata 1
range 1.04967000000000010000 1.05667000000000000000

Units are S.I. units (second, meters, Newtons, ...)
Angles are in degrees.

endheader
time	pelvis_tilt	pelvis_list	pelvis_rotation	pelvis_tx	pelvis_ty	pelvis_tz	hip_flexion_r	hip_adduction_r	hip_rotation_r	knee_angle_r	ankle_angle_r	subtalar_angle_r	mtp_angle_r	hip_flexion_l	hip_adduction_l	hip_rotation_l	knee_angle_l	ankle_angle_l	subtalar_angle_l	mtp_angle_l	lumbar_extension	lumbar_bending	lumbar_rotation	arm_flex_r	arm_add_r	arm_rot_r	elbow_flex_r	pro_sup_r	wrist_flex_r	wrist_dev_r	arm_flex_l	arm_add_l	arm_rot_l	elbow_flex_l	pro_sup_l	wrist_flex_l	wrist_dev_l
      1.04967000000000010000	     -3.20786419645201670000	      5.05044852466787300000	      1.64712731372812880000	      0.88928693319748742000	      0.95990902280253820000	     -0.28944816033779125000	     43.95920565469712900000	     -5.24317623435645610000	      2.72942718592696120000	   -105.63043803949945000000	      3.22513331004719370000	     -0.00000000000056706967	     -0.00000000000011054931	      2.22255279938111850000	     14.47852892981084900000	      8.99712001645827360000	    -31.58047411196355400000	     21.09786827215156200000	     -0.00000000000000409529	      0.00000000000005513488	    -11.09397497442202300000	     -4.19317101905980390000	    -15.50376751458090200000	    -37.63195106517899500000	    -24.17352861839165700000	     -1.35246361090623850000	     69.46592093866262000000	    105.22743165668592000000	      0.00000000000001687922	     -0.00000000000009052859	    -20.32373285095715000000	    -21.18759194360249900000	     -2.46586251232469510000	    113.53955339026901000000	    110.13535334477810000000	      0.00000000000000757068	      0.00000000000005274639
      1.05067000000000000000	     -3.22639151214659400000	      4.93596492275224550000	      1.63155813374738150000	      0.88963746918484765000	      0.96063705883712103000	     -0.28938508170659916000	     44.05575804063670400000	     -5.10520879339982960000	      2.67473423513763150000	   -105.25568772941270000000	      3.32146700328796470000	     -0.00000000000056833565	     -0.00000000000011082543	      1.83690742274028330000	     14.32661572130798400000	      9.17378162310100010000	    -31.20081724605813600000	     20.86545262895475600000	     -0.00000000000000360808	      0.00000000000005517100	    -11.00457100514026900000	     -4.05140075357730910000	    -15.59622964020034900000	    -37.83081576137497100000	    -24.25188519121870500000	     -1.37857153737322810000	     69.62701176730784900000	    105.15599618407565000000	      0.00000000000001688074	     -0.00000000000009101760	    -20.29741290243148900000	    -21.18625112255753300000	     -2.41210054542949100000	    113.68653983166111000000	    110.15585293529061000000	      0.00000000000000759189	      0.00000000000005289218
      1.05167000000000010000	     -3.24495365686992800000	      4.82044805690935620000	      1.61576677361020040000	      0.88999344696781746000	      0.96137267905352608000	     -0.28931738893820091000	     44.14849280135592100000	     -4.96586647234452090000	      2.61876201804980810000	   -104.87532213179712000000	      3.41588820779207940000	     -0.00000000000056960393	     -0.00000000000011110176	      1.45150800829126480000	     14.17207998663171300000	      9.34927074944122260000	    -30.81941396658255200000	     20.62312494629340900000	     -0.00000000000000307894	      0.00000000000005518809	    -10.91458265678195800000	     -3.90905073976738260000	    -15.68772589170338700000	    -38.02995293268233500000	    -24.32891773743854100000	     -1.40579719365033400000	     69.78839920898821000000	    105.08553578559901000000	      0.00000000000001686592	     -0.00000000000009149929	    -20.27369500367118600000	    -21.18563977515049900000	     -2.35831614483806980000	    113.83311032133744000000	    110.18057149215744000000	      0.00000000000000761327	      0.00000000000005303863
      1.05267000000000000000	     -3.26355976677332250000	      4.70392329302593910000	      1.59969718257880440000	      0.89035472469896548000	      0.96211565577617730000	     -0.28924497764844159000	     44.23745772896031500000	     -4.82508210308325140000	      2.56165067342911180000	   -104.48937211778748000000	      3.50842131680430840000	     -0.00000000000057087304	     -0.00000000000011137806	      1.06648198174077470000	     14.01492023784157000000	      9.52326011834641940000	    -30.43637988932271900000	     20.37076165441842000000	     -0.00000000000000255909	      0.00000000000005521396	    -10.82402325194967900000	     -3.76615749103310100000	    -15.77820673082055200000	    -38.22930687301540300000	    -24.40458100759395100000	     -1.43418426764393290000	     69.94996320837738300000	    105.01612966686567000000	      0.00000000000001687133	     -0.00000000000009198737	    -20.25254878886024900000	    -21.18573581739602600000	     -2.30454272970453330000	    113.97922730669578000000	    110.20952857458853000000	      0.00000000000000763423	      0.00000000000005318551
      1.05367000000000010000	     -3.28221805848674150000	      4.58641731564675490000	      1.58329319246952660000	      0.89072116552691449000	      0.96286576262313062000	     -0.28916775229622393000	     44.32269827630864300000	     -4.68279192908382400000	      2.50354060246942730000	   -104.09786533011253000000	      3.59909440265015950000	     -0.00000000000057216135	     -0.00000000000011165483	      0.68195005827367472000	     13.85514120611904700000	      9.69542348127788860000	    -30.05182175774598400000	     20.10824181481249100000	     -0.00000000000000200465	      0.00000000000005525800	    -10.73290635720082200000	     -3.62275703045398640000	    -15.86762253031230300000	    -38.42882404116754500000	    -24.47883344307551600000	     -1.46377282400046420000	     70.11159052100175900000	    104.94784016398238000000	      0.00000000000001688277	     -0.00000000000009248218	    -20.23394170434649900000	    -21.18651675009655500000	     -2.25080730988630640000	    114.12485187959207000000	    110.24272975460867000000	      0.00000000000000765553	      0.00000000000005333253
      1.05467000000000000000	     -3.30093640986693780000	      4.46795759578424520000	      1.56650167323986600000	      0.89109263672969974000	      0.96362277424323450000	     -0.28908563011428456000	     44.40425747433201300000	     -4.53893765779953110000	      2.44456965069909420000	   -103.70082618633955000000	      3.68793917315662510000	     -0.00000000000057347215	     -0.00000000000011193128	      0.29802710262850346000	     13.69275352070374100000	      9.86543956889180150000	    -29.66583915894345600000	     19.83544912377306300000	     -0.00000000000000147977	      0.00000000000005525370	    -10.64124540575504700000	     -3.47888394196530460000	    -15.95592654414280900000	    -38.62845296730214500000	    -24.55163700917425400000	     -1.49459922096581880000	     70.27317438109754700000	    104.88071332043653000000	      0.00000000000001690633	     -0.00000000000009294670	    -20.21783907614274900000	    -21.18795980073675300000	     -2.19713069309794440000	    114.26994383103363000000	    110.28016698505840000000	      0.00000000000000767697	      0.00000000000005347908
      1.05567000000000010000	     -3.31972161574601850000	      4.34857224623638320000	      1.54927241830832730000	      0.89146900970541387000	      0.96438646719669829000	     -0.28899854065882502000	     44.48217506574208400000	     -4.39346648104199210000	      2.38487285664930230000	   -103.29827593608861000000	      3.77499060014145860000	     -0.00000000000057479912	     -0.00000000000011220731	     -0.08517876353070393000	     13.52777344171267700000	     10.03299294146316000000	    -29.27852427350018500000	     19.55226993381204200000	     -0.00000000000000096434	      0.00000000000005522331	    -10.54905455856414200000	     -3.33457130085578960000	    -16.04307481507681000000	    -38.82814407912831500000	    -24.62295709859025900000	     -1.52669604042308560000	     70.43461437580074900000	    104.81477938248983000000	      0.00000000000001693308	     -0.00000000000009340153	    -20.20420398087440400000	    -21.19004207205022200000	     -2.14352764478576100000	    114.41446179654258000000	    110.32181892076721000000	      0.00000000000000769809	      0.00000000000005362596
      1.05667000000000000000	     -3.33857967989921620000	      4.22828999499686460000	      1.53155804979311650000	      0.89185015967645398000	      0.96515661966725386000	     -0.28890642556726920000	     44.55648790785368600000	     -4.24633119082138320000	      2.32458235099509030000	   -102.89023288536922000000	      3.86028636460307430000	     -0.00000000000057616237	     -0.00000000000011248464	     -0.46756576919603043000	     13.36022290624601500000	     10.19777496141726700000	    -28.88996234677433600000	     19.25859537890079000000	     -0.00000000000000045916	      0.00000000000005511975	    -10.45634840977276700000	     -3.18985075818044320000	    -16.12902606149954500000	    -39.02784968504615600000	    -24.69276247222467200000	     -1.56009202906601590000	     70.59581625215457700000	    104.75005331802510000000	      0.00000000000001696991	     -0.00000000000009384290	    -20.19299731747274200000	    -21.19274060859420700000	     -2.09000708301754080000	    114.55836336313416000000	    110.36765130852888000000	      0.00000000000000771973	      0.00000000000005377252
